<svg width="168" height="98" viewBox="0 0 168 98" fill="none" xmlns="http://www.w3.org/2000/svg">
<g clip-path="url(#clip0_406_119)">
<path d="M62.7626 6.23769C62.0792 5.55408 62.0791 4.44622 62.7623 3.76252C62.7624 3.76246 62.7625 3.7624 62.7625 3.76233C62.7626 3.76231 62.7626 3.76229 62.7626 3.76226C63.4462 3.07943 64.5542 3.07945 65.2379 3.76256L80.2352 18.7646L80.2353 18.7647C80.919 19.4483 80.919 20.5516 80.2353 21.2353L80.2353 21.2353L65.2376 36.2353C64.5539 36.9189 63.446 36.9189 62.7626 36.2353C62.0791 35.5516 62.0791 34.4483 62.7626 33.7646L62.7626 33.7646L75.9914 20.5302L76.5214 19.9999L75.9913 19.4697L62.7626 6.23771C62.7626 6.2377 62.7626 6.23769 62.7626 6.23769ZM104 33.25C104.969 33.25 105.75 34.0314 105.75 35C105.75 35.9686 104.969 36.75 104 36.75H81.5C80.5314 36.75 79.75 35.9686 79.75 35C79.75 34.0314 80.5314 33.25 81.5 33.25H104Z" stroke="#3294F8" stroke-width="1.5"/>
</g>
<path d="M14.4844 78.2695V85.7578C13.375 86.7734 11.1289 87.2812 7.74609 87.2812C7.08203 87.2812 6.49609 87.2539 5.98828 87.1992C5.48828 87.1445 5.02734 87.0742 4.60547 86.9883C4.19141 86.9023 3.83594 86.7578 3.53906 86.5547C3.24219 86.3438 2.98047 86.1328 2.75391 85.9219C2.52734 85.7109 2.34375 85.4062 2.20312 85.0078C2.0625 84.6016 1.94531 84.2109 1.85156 83.8359C1.76562 83.4609 1.69922 82.957 1.65234 82.3242C1.61328 81.6914 1.58594 81.0859 1.57031 80.5078C1.55469 79.9297 1.54688 79.1875 1.54688 78.2812C1.54688 77.5078 1.55078 76.8477 1.55859 76.3008C1.57422 75.7539 1.60156 75.1953 1.64062 74.625C1.6875 74.0547 1.74609 73.582 1.81641 73.207C1.89453 72.8242 1.99609 72.4414 2.12109 72.0586C2.25391 71.668 2.40625 71.3555 2.57812 71.1211C2.75 70.8789 2.96484 70.6406 3.22266 70.4062C3.48047 70.1719 3.76562 69.9922 4.07812 69.8672C4.39844 69.7422 4.76953 69.6289 5.19141 69.5273C5.61328 69.4258 6.07422 69.3594 6.57422 69.3281C7.07422 69.2891 7.64062 69.2695 8.27344 69.2695C8.3125 69.2695 8.37109 69.2695 8.44922 69.2695C8.99609 69.2695 9.41016 69.2734 9.69141 69.2812C9.97266 69.2891 10.3516 69.3203 10.8281 69.375C11.3125 69.4219 11.6836 69.5 11.9414 69.6094C12.1992 69.7109 12.4961 69.8672 12.832 70.0781C13.168 70.2812 13.418 70.5352 13.582 70.8398C13.7461 71.1367 13.8906 71.5156 14.0156 71.9766C14.1406 72.4375 14.2031 72.9688 14.2031 73.5703C14.2031 73.7109 14.1953 73.9062 14.1797 74.1562L12.082 74.5547L11.9531 72.2461C11.9375 71.7461 11.6523 71.4258 11.0977 71.2852C10.543 71.1367 9.49219 71.0625 7.94531 71.0625C6.89062 71.0625 6.09375 71.1289 5.55469 71.2617C5.01562 71.3867 4.64062 71.582 4.42969 71.8477C4.21875 72.1133 4.08984 72.5078 4.04297 73.0312C3.97266 74.6328 3.9375 76.2734 3.9375 77.9531C3.9375 79.6406 3.97266 81.2812 4.04297 82.875C4.08203 83.7188 4.14844 84.2656 4.24219 84.5156C4.39062 84.8984 4.73047 85.1562 5.26172 85.2891C5.76172 85.4141 6.63281 85.4766 7.875 85.4766C10.5469 85.4766 12.0273 85.2969 12.3164 84.9375C12.3086 84.1328 12.3047 82.5 12.3047 80.0391H9.35156L9.15234 78.2695H14.4844ZM20.4258 87H18.0469V69.5391H20.4258V87ZM33.8906 71.3438H29.332V87H26.9531V71.3438H22.4883V69.5391H33.8906V71.3438ZM48.4453 87H46.0664V78.9844H38.2617V87H35.8828V69.5391H38.2617V77.1328H46.0664V69.5391H48.4453V87ZM65.3555 69.5391V80.4727C65.3555 81.4102 65.3125 82.2148 65.2266 82.8867C65.1484 83.5586 65.0039 84.1562 64.793 84.6797C64.582 85.1953 64.3164 85.6172 63.9961 85.9453C63.6836 86.2656 63.2695 86.5312 62.7539 86.7422C62.2461 86.9453 61.6758 87.0859 61.043 87.1641C60.4102 87.2422 59.6445 87.2812 58.7461 87.2812C57.8789 87.2812 57.1406 87.2461 56.5312 87.1758C55.9219 87.1055 55.3594 86.9766 54.8438 86.7891C54.3281 86.5938 53.9102 86.3398 53.5898 86.0273C53.2773 85.707 53.0078 85.293 52.7812 84.7852C52.5547 84.2695 52.3945 83.6641 52.3008 82.9688C52.2148 82.2734 52.1719 81.4414 52.1719 80.4727V69.5391H54.5508V80.7773C54.5508 81.4258 54.5508 81.8945 54.5508 82.1836C54.5586 82.4727 54.582 82.8281 54.6211 83.25C54.6602 83.6641 54.7109 83.9492 54.7734 84.1055C54.8359 84.2539 54.9375 84.4414 55.0781 84.668C55.2266 84.8945 55.3906 85.0391 55.5703 85.1016C55.7578 85.1562 56.0117 85.2266 56.332 85.3125C56.6523 85.3984 56.9961 85.4492 57.3633 85.4648C57.7383 85.4727 58.2031 85.4766 58.7578 85.4766C59.4141 85.4766 59.9609 85.457 60.3984 85.418C60.8438 85.3789 61.2305 85.3008 61.5586 85.1836C61.8867 85.0664 62.1367 84.9336 62.3086 84.7852C62.4883 84.6289 62.6289 84.4023 62.7305 84.1055C62.8398 83.8086 62.9102 83.5 62.9414 83.1797C62.9727 82.8594 62.9883 82.4336 62.9883 81.9023L62.9766 69.5391H65.3555ZM81.3984 81.9727C81.3906 82.4648 81.3711 82.8984 81.3398 83.2734C81.3164 83.6406 81.2734 83.9883 81.2109 84.3164C81.1484 84.6445 81.082 84.9219 81.0117 85.1484C80.9414 85.375 80.8281 85.5898 80.6719 85.793C80.5234 85.9883 80.3789 86.1484 80.2383 86.2734C80.0977 86.3906 79.8945 86.5 79.6289 86.6016C79.3711 86.6953 79.1211 86.7656 78.8789 86.8125C78.6367 86.8594 78.3125 86.8984 77.9062 86.9297C77.5078 86.9609 77.1211 86.9805 76.7461 86.9883C76.3789 86.9961 75.9141 87 75.3516 87H69.0938V69.5391H75.7266C76.6094 69.5391 77.3398 69.5859 77.918 69.6797C78.5039 69.7656 79.0195 69.9258 79.4648 70.1602C79.918 70.3945 80.2461 70.7266 80.4492 71.1562C80.6523 71.5859 80.7578 72.1328 80.7656 72.7969L80.7773 74.0625C80.7773 74.5938 80.7578 75.0273 80.7188 75.3633C80.6797 75.6992 80.6094 76.0039 80.5078 76.2773C80.4141 76.5508 80.2695 76.7656 80.0742 76.9219C79.8789 77.0781 79.6406 77.2109 79.3594 77.3203C79.0859 77.4219 78.7305 77.5117 78.293 77.5898C78.8242 77.6445 79.2812 77.7617 79.6641 77.9414C80.0469 78.1211 80.3477 78.3359 80.5664 78.5859C80.793 78.8359 80.9688 79.1523 81.0938 79.5352C81.2188 79.918 81.3008 80.293 81.3398 80.6602C81.3789 81.0273 81.3984 81.4648 81.3984 81.9727ZM78.457 73.5586C78.457 73.543 78.457 73.5195 78.457 73.4883C78.457 73.1602 78.457 72.9297 78.457 72.7969C78.457 72.6562 78.4336 72.4883 78.3867 72.293C78.3477 72.0898 78.3047 71.957 78.2578 71.8945C78.2188 71.832 78.1211 71.75 77.9648 71.6484C77.8164 71.5391 77.668 71.4766 77.5195 71.4609C77.3711 71.4375 77.1367 71.4102 76.8164 71.3789C76.5039 71.3398 76.1914 71.3203 75.8789 71.3203C75.5664 71.3203 75.1406 71.3203 74.6016 71.3203H71.4492V76.9219H73.8047C74.8281 76.9219 75.6562 76.8945 76.2891 76.8398C76.9219 76.7773 77.3906 76.6758 77.6953 76.5352C78.0078 76.3867 78.2109 76.2305 78.3047 76.0664C78.4062 75.9023 78.457 75.6836 78.457 75.4102V73.5586ZM79.0781 81.4102C79.0625 80.4805 79.0273 79.8945 78.9727 79.6523C78.8633 79.2227 78.5938 78.9297 78.1641 78.7734C77.6328 78.5703 76.4453 78.4648 74.6016 78.457C74.4766 78.457 74.3398 78.457 74.1914 78.457H71.4492V85.2305H75.9258C76.832 85.2305 77.5156 85.1562 77.9766 85.0078C78.4375 84.8516 78.7422 84.6211 78.8906 84.3164C79.0391 84.0117 79.1094 83.5625 79.1016 82.9688L79.0781 81.4102ZM91.6992 87H89.3203V69.5391H91.6992V87ZM107.133 81.8789C107.133 82.3867 107.117 82.8477 107.086 83.2617C107.055 83.668 106.996 84.043 106.91 84.3867C106.832 84.7227 106.746 85.0195 106.652 85.2773C106.559 85.5352 106.426 85.7656 106.254 85.9688C106.082 86.1641 105.91 86.332 105.738 86.4727C105.574 86.6133 105.355 86.7344 105.082 86.8359C104.816 86.9297 104.559 87.0039 104.309 87.0586C104.059 87.1211 103.746 87.168 103.371 87.1992C102.996 87.2305 102.637 87.25 102.293 87.2578C101.957 87.2734 101.543 87.2812 101.051 87.2812C100.121 87.2812 99.3398 87.2539 98.707 87.1992C98.082 87.1445 97.5469 87.0273 97.1016 86.8477C96.6641 86.668 96.3242 86.4844 96.082 86.2969C95.8398 86.1016 95.6484 85.7969 95.5078 85.3828C95.3672 84.9609 95.2734 84.5586 95.2266 84.1758C95.1875 83.793 95.1523 83.25 95.1211 82.5469L97.2891 82.1953C97.3125 82.3672 97.3359 82.6094 97.3594 82.9219C97.4062 83.4062 97.4492 83.75 97.4883 83.9531C97.5352 84.1484 97.6211 84.3672 97.7461 84.6094C97.8711 84.8516 98.0664 85.0117 98.332 85.0898C98.5977 85.1602 98.9453 85.2227 99.375 85.2773C99.8047 85.332 100.379 85.3594 101.098 85.3594C101.691 85.3594 102.18 85.3438 102.562 85.3125C102.945 85.2812 103.281 85.2188 103.57 85.125C103.859 85.0234 104.078 84.9102 104.227 84.7852C104.375 84.6602 104.492 84.4688 104.578 84.2109C104.672 83.9453 104.73 83.6719 104.754 83.3906C104.777 83.1094 104.785 82.7344 104.777 82.2656C104.77 81.2344 104.711 80.5234 104.602 80.1328C104.5 79.7344 104.277 79.5 103.934 79.4297L98.0977 78.4102C97.082 78.2383 96.375 77.8516 95.9766 77.25C95.5781 76.6484 95.3672 75.6758 95.3438 74.332C95.3438 73.6133 95.3789 73 95.4492 72.4922C95.5273 71.9766 95.6562 71.5273 95.8359 71.1445C96.0234 70.7539 96.25 70.4414 96.5156 70.207C96.7891 69.9727 97.1445 69.7852 97.582 69.6445C98.0273 69.4961 98.5117 69.3984 99.0352 69.3516C99.5664 69.2969 100.215 69.2695 100.98 69.2695C101.605 69.2695 102.141 69.2852 102.586 69.3164C103.039 69.3398 103.477 69.3867 103.898 69.457C104.328 69.5273 104.684 69.625 104.965 69.75C105.246 69.875 105.504 70.0391 105.738 70.2422C105.98 70.4375 106.168 70.6797 106.301 70.9688C106.434 71.25 106.535 71.582 106.605 71.9648C106.676 72.3477 106.711 72.7891 106.711 73.2891L104.625 73.7695C104.547 72.9102 104.496 72.4219 104.473 72.3047C104.379 71.9062 104.156 71.6367 103.805 71.4961C103.414 71.332 102.598 71.25 101.355 71.25C100.676 71.25 100.113 71.2695 99.668 71.3086C99.2305 71.3477 98.8711 71.4062 98.5898 71.4844C98.3086 71.5547 98.0977 71.6641 97.957 71.8125C97.8242 71.9609 97.7344 72.1211 97.6875 72.293C97.6406 72.457 97.6172 72.6758 97.6172 72.9492V74.9766C97.6172 75.7109 97.9375 76.1328 98.5781 76.2422L102.773 76.957C103.164 77.0195 103.477 77.0742 103.711 77.1211C103.945 77.168 104.215 77.2305 104.52 77.3086C104.824 77.3867 105.062 77.4688 105.234 77.5547C105.406 77.6406 105.598 77.75 105.809 77.8828C106.02 78.0156 106.184 78.1641 106.301 78.3281C106.418 78.4922 106.535 78.6875 106.652 78.9141C106.777 79.1406 106.867 79.3984 106.922 79.6875C106.984 79.9688 107.035 80.293 107.074 80.6602C107.113 81.0195 107.133 81.4258 107.133 81.8789ZM121.828 81.8789C121.828 82.3867 121.812 82.8477 121.781 83.2617C121.75 83.668 121.691 84.043 121.605 84.3867C121.527 84.7227 121.441 85.0195 121.348 85.2773C121.254 85.5352 121.121 85.7656 120.949 85.9688C120.777 86.1641 120.605 86.332 120.434 86.4727C120.27 86.6133 120.051 86.7344 119.777 86.8359C119.512 86.9297 119.254 87.0039 119.004 87.0586C118.754 87.1211 118.441 87.168 118.066 87.1992C117.691 87.2305 117.332 87.25 116.988 87.2578C116.652 87.2734 116.238 87.2812 115.746 87.2812C114.816 87.2812 114.035 87.2539 113.402 87.1992C112.777 87.1445 112.242 87.0273 111.797 86.8477C111.359 86.668 111.02 86.4844 110.777 86.2969C110.535 86.1016 110.344 85.7969 110.203 85.3828C110.062 84.9609 109.969 84.5586 109.922 84.1758C109.883 83.793 109.848 83.25 109.816 82.5469L111.984 82.1953C112.008 82.3672 112.031 82.6094 112.055 82.9219C112.102 83.4062 112.145 83.75 112.184 83.9531C112.23 84.1484 112.316 84.3672 112.441 84.6094C112.566 84.8516 112.762 85.0117 113.027 85.0898C113.293 85.1602 113.641 85.2227 114.07 85.2773C114.5 85.332 115.074 85.3594 115.793 85.3594C116.387 85.3594 116.875 85.3438 117.258 85.3125C117.641 85.2812 117.977 85.2188 118.266 85.125C118.555 85.0234 118.773 84.9102 118.922 84.7852C119.07 84.6602 119.188 84.4688 119.273 84.2109C119.367 83.9453 119.426 83.6719 119.449 83.3906C119.473 83.1094 119.48 82.7344 119.473 82.2656C119.465 81.2344 119.406 80.5234 119.297 80.1328C119.195 79.7344 118.973 79.5 118.629 79.4297L112.793 78.4102C111.777 78.2383 111.07 77.8516 110.672 77.25C110.273 76.6484 110.062 75.6758 110.039 74.332C110.039 73.6133 110.074 73 110.145 72.4922C110.223 71.9766 110.352 71.5273 110.531 71.1445C110.719 70.7539 110.945 70.4414 111.211 70.207C111.484 69.9727 111.84 69.7852 112.277 69.6445C112.723 69.4961 113.207 69.3984 113.73 69.3516C114.262 69.2969 114.91 69.2695 115.676 69.2695C116.301 69.2695 116.836 69.2852 117.281 69.3164C117.734 69.3398 118.172 69.3867 118.594 69.457C119.023 69.5273 119.379 69.625 119.66 69.75C119.941 69.875 120.199 70.0391 120.434 70.2422C120.676 70.4375 120.863 70.6797 120.996 70.9688C121.129 71.25 121.23 71.582 121.301 71.9648C121.371 72.3477 121.406 72.7891 121.406 73.2891L119.32 73.7695C119.242 72.9102 119.191 72.4219 119.168 72.3047C119.074 71.9062 118.852 71.6367 118.5 71.4961C118.109 71.332 117.293 71.25 116.051 71.25C115.371 71.25 114.809 71.2695 114.363 71.3086C113.926 71.3477 113.566 71.4062 113.285 71.4844C113.004 71.5547 112.793 71.6641 112.652 71.8125C112.52 71.9609 112.43 72.1211 112.383 72.293C112.336 72.457 112.312 72.6758 112.312 72.9492V74.9766C112.312 75.7109 112.633 76.1328 113.273 76.2422L117.469 76.957C117.859 77.0195 118.172 77.0742 118.406 77.1211C118.641 77.168 118.91 77.2305 119.215 77.3086C119.52 77.3867 119.758 77.4688 119.93 77.5547C120.102 77.6406 120.293 77.75 120.504 77.8828C120.715 78.0156 120.879 78.1641 120.996 78.3281C121.113 78.4922 121.23 78.6875 121.348 78.9141C121.473 79.1406 121.562 79.3984 121.617 79.6875C121.68 79.9688 121.73 80.293 121.77 80.6602C121.809 81.0195 121.828 81.4258 121.828 81.8789ZM138.082 69.5391V80.4727C138.082 81.4102 138.039 82.2148 137.953 82.8867C137.875 83.5586 137.73 84.1562 137.52 84.6797C137.309 85.1953 137.043 85.6172 136.723 85.9453C136.41 86.2656 135.996 86.5312 135.48 86.7422C134.973 86.9453 134.402 87.0859 133.77 87.1641C133.137 87.2422 132.371 87.2812 131.473 87.2812C130.605 87.2812 129.867 87.2461 129.258 87.1758C128.648 87.1055 128.086 86.9766 127.57 86.7891C127.055 86.5938 126.637 86.3398 126.316 86.0273C126.004 85.707 125.734 85.293 125.508 84.7852C125.281 84.2695 125.121 83.6641 125.027 82.9688C124.941 82.2734 124.898 81.4414 124.898 80.4727V69.5391H127.277V80.7773C127.277 81.4258 127.277 81.8945 127.277 82.1836C127.285 82.4727 127.309 82.8281 127.348 83.25C127.387 83.6641 127.438 83.9492 127.5 84.1055C127.562 84.2539 127.664 84.4414 127.805 84.668C127.953 84.8945 128.117 85.0391 128.297 85.1016C128.484 85.1562 128.738 85.2266 129.059 85.3125C129.379 85.3984 129.723 85.4492 130.09 85.4648C130.465 85.4727 130.93 85.4766 131.484 85.4766C132.141 85.4766 132.688 85.457 133.125 85.418C133.57 85.3789 133.957 85.3008 134.285 85.1836C134.613 85.0664 134.863 84.9336 135.035 84.7852C135.215 84.6289 135.355 84.4023 135.457 84.1055C135.566 83.8086 135.637 83.5 135.668 83.1797C135.699 82.8594 135.715 82.4336 135.715 81.9023L135.703 69.5391H138.082ZM151.711 87H141.82V69.5391H151.605L151.84 71.3438H144.199V76.957H150.727V78.8555H144.199V85.207H151.945L151.711 87ZM166.359 81.8789C166.359 82.3867 166.344 82.8477 166.312 83.2617C166.281 83.668 166.223 84.043 166.137 84.3867C166.059 84.7227 165.973 85.0195 165.879 85.2773C165.785 85.5352 165.652 85.7656 165.48 85.9688C165.309 86.1641 165.137 86.332 164.965 86.4727C164.801 86.6133 164.582 86.7344 164.309 86.8359C164.043 86.9297 163.785 87.0039 163.535 87.0586C163.285 87.1211 162.973 87.168 162.598 87.1992C162.223 87.2305 161.863 87.25 161.52 87.2578C161.184 87.2734 160.77 87.2812 160.277 87.2812C159.348 87.2812 158.566 87.2539 157.934 87.1992C157.309 87.1445 156.773 87.0273 156.328 86.8477C155.891 86.668 155.551 86.4844 155.309 86.2969C155.066 86.1016 154.875 85.7969 154.734 85.3828C154.594 84.9609 154.5 84.5586 154.453 84.1758C154.414 83.793 154.379 83.25 154.348 82.5469L156.516 82.1953C156.539 82.3672 156.562 82.6094 156.586 82.9219C156.633 83.4062 156.676 83.75 156.715 83.9531C156.762 84.1484 156.848 84.3672 156.973 84.6094C157.098 84.8516 157.293 85.0117 157.559 85.0898C157.824 85.1602 158.172 85.2227 158.602 85.2773C159.031 85.332 159.605 85.3594 160.324 85.3594C160.918 85.3594 161.406 85.3438 161.789 85.3125C162.172 85.2812 162.508 85.2188 162.797 85.125C163.086 85.0234 163.305 84.9102 163.453 84.7852C163.602 84.6602 163.719 84.4688 163.805 84.2109C163.898 83.9453 163.957 83.6719 163.98 83.3906C164.004 83.1094 164.012 82.7344 164.004 82.2656C163.996 81.2344 163.938 80.5234 163.828 80.1328C163.727 79.7344 163.504 79.5 163.16 79.4297L157.324 78.4102C156.309 78.2383 155.602 77.8516 155.203 77.25C154.805 76.6484 154.594 75.6758 154.57 74.332C154.57 73.6133 154.605 73 154.676 72.4922C154.754 71.9766 154.883 71.5273 155.062 71.1445C155.25 70.7539 155.477 70.4414 155.742 70.207C156.016 69.9727 156.371 69.7852 156.809 69.6445C157.254 69.4961 157.738 69.3984 158.262 69.3516C158.793 69.2969 159.441 69.2695 160.207 69.2695C160.832 69.2695 161.367 69.2852 161.812 69.3164C162.266 69.3398 162.703 69.3867 163.125 69.457C163.555 69.5273 163.91 69.625 164.191 69.75C164.473 69.875 164.73 70.0391 164.965 70.2422C165.207 70.4375 165.395 70.6797 165.527 70.9688C165.66 71.25 165.762 71.582 165.832 71.9648C165.902 72.3477 165.938 72.7891 165.938 73.2891L163.852 73.7695C163.773 72.9102 163.723 72.4219 163.699 72.3047C163.605 71.9062 163.383 71.6367 163.031 71.4961C162.641 71.332 161.824 71.25 160.582 71.25C159.902 71.25 159.34 71.2695 158.895 71.3086C158.457 71.3477 158.098 71.4062 157.816 71.4844C157.535 71.5547 157.324 71.6641 157.184 71.8125C157.051 71.9609 156.961 72.1211 156.914 72.293C156.867 72.457 156.844 72.6758 156.844 72.9492V74.9766C156.844 75.7109 157.164 76.1328 157.805 76.2422L162 76.957C162.391 77.0195 162.703 77.0742 162.938 77.1211C163.172 77.168 163.441 77.2305 163.746 77.3086C164.051 77.3867 164.289 77.4688 164.461 77.5547C164.633 77.6406 164.824 77.75 165.035 77.8828C165.246 78.0156 165.41 78.1641 165.527 78.3281C165.645 78.4922 165.762 78.6875 165.879 78.9141C166.004 79.1406 166.094 79.3984 166.148 79.6875C166.211 79.9688 166.262 80.293 166.301 80.6602C166.34 81.0195 166.359 81.4258 166.359 81.8789Z" fill="#3294F8"/>
<defs>
<clipPath id="clip0_406_119">
<rect width="45" height="40" fill="white" transform="translate(61.5)"/>
</clipPath>
</defs>
</svg>
